<?xml version="1.0" encoding="UTF-8"?>
<svg id="a" xmlns="http://www.w3.org/2000/svg" viewBox="0 0 400 200">
    <defs>
        <style>
            .b {
                fill: #ed2525;
            }

            .c {
                fill: #fff;
            }
        </style>
    </defs>
    <g>
        <polygon class="b"
            points="92.14 75.6 92.14 91.98 75.76 91.98 75.76 108.36 59.4 108.36 59.4 124.74 43.02 124.74 43.02 75.6 92.14 75.6" />
        <rect class="b" x="75.76" y="108.36" width="16.38" height="16.38" />
    </g>
    <g>
        <path class="c"
            d="M126.07,81.76c0,3.4-1.26,5-4.15,5.41,2.74,.28,4.15,1.5,4.15,4.15v5.06h-5.8v-4.75c0-2.26-.28-2.51-3.17-2.51h-4.11v7.25h-5.54v-20.57h11.77c5.48,0,6.86,1.19,6.86,5.97Zm-8.28,3.13c2.48,0,2.74-.23,2.74-2.35s-.27-2.26-2.74-2.26h-4.81v4.61h4.81Z" />
        <path class="c"
            d="M135.42,80.23c6.62,0,8.28,1.64,8.28,8.23s-1.66,8.23-8.28,8.23-8.28-1.64-8.28-8.23,1.66-8.23,8.28-8.23Zm-3.01,8.23c0,3.85,.28,4.27,3.01,4.27s3.01-.43,3.01-4.27-.28-4.27-3.01-4.27-3.01,.43-3.01,4.27Z" />
        <path class="c"
            d="M150.82,75.28v7.41c.59-1.71,2.26-2.46,5.27-2.46,4.72,0,5.91,1.64,5.91,8.23s-1.25,8.23-6.18,8.23c-3.08,0-4.7-1.1-5.15-3.61v3.29h-4.88v-21.1h5l.02,.02Zm2.9,17.2c2.72,0,3.01-.39,3.01-4.01s-.27-4.01-2.72-4.01c-2.24,0-3.19,.89-3.19,3.01v3.33c0,1.19,1.09,1.69,2.9,1.69v-.02Z" />
        <path class="c"
            d="M173.57,96.38v-2.48c-.48,1.92-1.91,2.8-4.51,2.8-4.17,0-5.2-1.19-5.2-5.91v-10.24h4.99v9.05c0,2.58,.23,2.87,2.35,2.87,1.64,0,2.35-.82,2.35-2.78v-9.15h5.04v15.83h-5l-.02,.02Z" />
        <path class="c"
            d="M188.69,92.99c2.56,0,2.85-.12,2.85-1.21,0-.78-.73-1.14-3.74-1.69-5.38-1.05-6.73-2.07-6.73-5.09,0-3.83,1.55-4.77,7.76-4.77s7.6,1.09,7.6,5.36v.48h-5v-.48c0-1.5-.27-1.66-2.58-1.66s-2.48,.12-2.48,1.25c0,.73,.45,.98,2.19,1.25,6.62,1.09,8.28,2.24,8.28,5.75s-1.6,4.54-8,4.54-8.12-1.05-8.12-5.27v-.34h5v.34c0,1.42,.28,1.58,2.97,1.58l-.02-.04Z" />
        <path class="c"
            d="M209.74,96.38h-3.17c-5.06,0-6.34-1.05-6.34-5.32v-6.29h-1.58v-4.22h1.85v-3.38h4.75v3.38h4.22v4.22h-4.22v4.99c0,1.92,.18,2.14,1.82,2.14h2.67v4.49Z" />
        <path class="c"
            d="M238.93,81.76c0,3.4-1.26,5-4.15,5.41,2.74,.28,4.15,1.5,4.15,4.15v5.06h-5.8v-4.75c0-2.26-.28-2.51-3.17-2.51h-4.11v7.25h-5.54v-20.57h11.77c5.48,0,6.86,1.19,6.86,5.97Zm-8.28,3.13c2.48,0,2.74-.23,2.74-2.35s-.27-2.26-2.74-2.26h-4.81v4.61h4.81Z" />
        <path class="c"
            d="M248.02,96.7c-6.43,0-8.05-1.64-8.05-8.23s1.6-8.23,8.05-8.23,7.91,1.44,8.05,7.19v2.46h-10.79c.11,2.78,.61,3.12,2.78,3.12s2.62-.34,2.62-1.66h5.27c-.11,4.27-1.69,5.36-7.91,5.36l-.02-.02Zm2.78-10.51c-.05-2.03-.43-2.26-2.74-2.26-1.96,0-2.56,.27-2.74,2.26h5.48Z" />
        <path class="c"
            d="M265.64,92.99c2.56,0,2.85-.12,2.85-1.21,0-.78-.73-1.14-3.74-1.69-5.38-1.05-6.73-2.07-6.73-5.09,0-3.83,1.55-4.77,7.76-4.77s7.6,1.09,7.6,5.36v.48h-5v-.48c0-1.5-.27-1.66-2.58-1.66s-2.48,.12-2.48,1.25c0,.73,.45,.98,2.19,1.25,6.62,1.09,8.28,2.24,8.28,5.75s-1.6,4.54-8,4.54-8.12-1.05-8.12-5.27v-.34h5v.34c0,1.42,.28,1.58,2.97,1.58l-.02-.04Z" />
        <path class="c"
            d="M283.39,96.7c-6.43,0-8.05-1.64-8.05-8.23s1.6-8.23,8.05-8.23,7.91,1.44,8.05,7.19v2.46h-10.79c.11,2.78,.61,3.12,2.78,3.12s2.62-.34,2.62-1.66h5.27c-.11,4.27-1.69,5.36-7.91,5.36l-.02-.02Zm2.78-10.51c-.05-2.03-.43-2.26-2.74-2.26-1.96,0-2.56,.27-2.74,2.26h5.48Z" />
        <path class="c"
            d="M308.55,85.71v10.65h-5v-2.15c-.53,1.69-1.91,2.46-4.4,2.48-4.91,.16-6.13-.82-6.13-4.88,0-3.85,1.21-4.83,6.04-4.83h4.49v-.93c0-1.92-.23-2.14-2.37-2.14-2.4,0-2.67,.21-2.62,2.07h-5v-.55c0-4.17,1.53-5.2,7.67-5.2s7.34,1.1,7.34,5.48h-.02Zm-7.39,7.39c1.66-.02,2.37-.55,2.37-1.76v-.69h-2.37c-2.58,.02-2.87,.12-2.87,1.21,0,1.16,.28,1.3,2.87,1.25Z" />
        <path class="c"
            d="M315.94,80.55v2.92c.45-2.03,1.87-2.92,4.51-2.92h1.82v4.49l-3.56-.05c-1.96-.02-2.78,.73-2.78,2.51v8.89h-5v-15.83h5.02Z" />
        <path class="c"
            d="M323.6,88.45c0-6.59,1.66-8.23,8.28-8.23,6.23,0,7.83,1.41,8,6.96h-5.27c-.11-2.72-.37-3.01-2.72-3.01-2.72,0-3.01,.43-3.01,4.27s.28,4.27,3.01,4.27c2.31,0,2.58-.32,2.72-3.06h5.27c-.12,5.63-1.75,7.02-8,7.02-6.62,0-8.28-1.64-8.28-8.23Z" />
        <path class="c"
            d="M346.99,75.28v7.78c.5-1.96,2.03-2.81,4.77-2.81,4.11,0,5.2,1.19,5.2,5.91v10.24h-4.99v-9.05c0-2.58-.21-2.87-2.19-2.87s-2.8,.94-2.8,3.13v8.78h-5v-21.1h5v-.02Z" />
        <path class="c"
            d="M123.59,120.59h-4.88l-.85-3.08h-6.09l-.96,3.08h-4.59l5.22-15.83h7.07l5.07,15.83h.02Zm-6.78-6.54l-1.89-5.84h-.12l-1.92,5.84h3.94Z" />
        <path class="c"
            d="M128.56,108.41v1.91c.39-1.48,1.55-2.15,3.67-2.15,3.21,0,4.01,.91,4.01,4.54v7.87h-3.83v-6.91c0-2.05-.16-2.28-1.71-2.28s-2.12,.69-2.12,2.28v6.91h-3.88v-12.18h3.86v.02Z" />
        <path class="c"
            d="M150.14,120.59h-3.76v-2.55c-.34,1.92-1.58,2.78-3.95,2.78-3.79,0-4.75-1.26-4.75-6.34s.91-6.34,4.54-6.34c2.31,0,3.61,.57,4.06,1.89v-5.7h3.86v16.26Zm-6.09-3.01c1.41,0,2.23-.39,2.23-1.3v-2.56c0-1.62-.73-2.31-2.46-2.31-1.89,0-2.08,.3-2.08,3.08s.23,3.08,2.31,3.08v.02Z" />
        <path class="c"
            d="M158.26,104.76h8.17c5.79,0,7.23,1.58,7.23,7.92s-1.44,7.92-7.23,7.92h-8.17v-15.85Zm4.24,7.92v4.26h3.49c2.88,0,3.21-.43,3.21-4.26s-.32-4.26-3.21-4.26h-3.47v4.26h-.02Z" />
        <path class="c"
            d="M181.07,120.84c-4.95,0-6.2-1.26-6.2-6.34s1.25-6.34,6.2-6.34,6.09,1.12,6.2,5.54v1.89h-8.3c.09,2.14,.46,2.4,2.14,2.4s2.01-.27,2.01-1.28h4.06c-.09,3.29-1.3,4.11-6.09,4.11l-.02,.02Zm2.14-8.08c-.04-1.57-.32-1.75-2.12-1.75-1.5,0-1.98,.2-2.12,1.75h4.24Z" />
        <path class="c" d="M197.29,120.59h-5.95l-3.37-12.18h4.01l2.42,9.33h.12l2.65-9.33h3.83l-3.72,12.18Z" />
        <path class="c"
            d="M207.5,120.84c-4.95,0-6.2-1.26-6.2-6.34s1.25-6.34,6.2-6.34,6.09,1.12,6.2,5.54v1.89h-8.3c.09,2.14,.46,2.4,2.14,2.4s2.01-.27,2.01-1.28h4.06c-.09,3.29-1.3,4.11-6.09,4.11l-.02,.02Zm2.14-8.08c-.04-1.57-.32-1.75-2.12-1.75-1.5,0-1.98,.2-2.12,1.75h4.24Z" />
        <path class="c"
            d="M220.78,120.59h-2.21c-2.62,0-3.28-.68-3.24-3.33v-12.91h3.86v11.75c0,.93,.16,1.03,1.6,1.03v3.45h-.02Z" />
        <path class="c"
            d="M228.37,108.18c5.09,0,6.37,1.26,6.37,6.34s-1.28,6.34-6.37,6.34-6.37-1.26-6.37-6.34,1.28-6.34,6.37-6.34Zm-2.31,6.34c0,2.96,.23,3.29,2.31,3.29s2.31-.32,2.31-3.29-.23-3.29-2.31-3.29-2.31,.32-2.31,3.29Z" />
        <path class="c"
            d="M236.38,108.41h3.76v2.3c.34-1.76,1.58-2.55,3.95-2.55,3.79,0,4.75,1.26,4.75,6.34s-.91,6.34-4.54,6.34c-2.4,0-3.67-.73-4.06-2.42v6.23h-3.86v-16.24Zm6.09,9.17c2.08,0,2.31-.3,2.31-3.08s-.2-3.08-2.12-3.08c-1.69,0-2.44,.69-2.44,2.33v2.51c0,.87,.78,1.32,2.23,1.32h.02Z" />
        <path class="c"
            d="M254.31,108.41v1.41c.41-1.14,1.34-1.64,2.87-1.64,2.78,0,3.88,.55,4.2,2.49,.37-1.73,1.41-2.49,3.31-2.49,3.72,0,4.65,1.07,4.65,5.36v7.07h-3.86v-6.55c0-2.35-.18-2.62-1.78-2.62-1.34,0-1.91,.75-1.89,2.48v6.7h-3.81v-6.55c0-2.35-.18-2.62-1.8-2.62-1.3,0-1.87,.75-1.87,2.48v6.7h-3.86v-12.18h3.86l-.02-.02Z" />
        <path class="c"
            d="M276.94,120.84c-4.95,0-6.2-1.26-6.2-6.34s1.25-6.34,6.2-6.34,6.09,1.12,6.2,5.54v1.89h-8.3c.09,2.14,.46,2.4,2.14,2.4s2.01-.27,2.01-1.28h4.06c-.09,3.29-1.3,4.11-6.09,4.11l-.02,.02Zm2.14-8.08c-.04-1.57-.32-1.75-2.12-1.75-1.5,0-1.98,.2-2.12,1.75h4.24Z" />
        <path class="c"
            d="M288.62,108.41v1.91c.39-1.48,1.55-2.15,3.67-2.15,3.21,0,4.01,.91,4.01,4.54v7.87h-3.83v-6.91c0-2.05-.16-2.28-1.71-2.28s-2.12,.69-2.12,2.28v6.91h-3.88v-12.18h3.86v.02Z" />
        <path class="c"
            d="M306.47,120.59h-2.44c-3.9,0-4.88-.82-4.88-4.1v-4.83h-1.21v-3.24h1.42v-2.6h3.65v2.6h3.24v3.24h-3.24v3.83c0,1.48,.14,1.64,1.41,1.64h2.05v3.45Z" />
        <path class="c" d="M318.84,104.76v12.18h7.71v3.65h-11.98v-15.83h4.27Z" />
        <path class="c"
            d="M336.01,120.59h-2.44c-3.9,0-4.88-.82-4.88-4.1v-4.83h-1.21v-3.24h1.42v-2.6h3.65v2.6h3.24v3.24h-3.24v3.83c0,1.48,.14,1.64,1.41,1.64h2.05v3.45Z" />
        <path class="c"
            d="M350.09,120.59h-3.76v-2.55c-.34,1.92-1.58,2.78-3.95,2.78-3.79,0-4.75-1.26-4.75-6.34s.91-6.34,4.54-6.34c2.31,0,3.61,.57,4.06,1.89v-5.7h3.86v16.26Zm-6.09-3.01c1.41,0,2.23-.39,2.23-1.3v-2.56c0-1.62-.73-2.31-2.46-2.31-1.89,0-2.08,.3-2.08,3.08s.23,3.08,2.31,3.08v.02Z" />
        <path class="c" d="M356.98,116.75v3.86h-4.67v-3.86h4.67Z" />
    </g>
</svg>